<svg xmlns="http://www.w3.org/2000/svg" xmlns:xlink="http://www.w3.org/1999/xlink" width="500" zoomAndPan="magnify" viewBox="0 0 375 374.999991" height="500" preserveAspectRatio="xMidYMid meet" version="1.0"><defs><g/></defs><g fill="#000000" fill-opacity="1"><g transform="translate(101.170479, 198.743526)"><g><path d="M 3.078125 0 L 3.078125 -44.03125 L 12.140625 -44.03125 L 12.140625 0 Z M 3.078125 0 "/></g></g></g><g fill="#000000" fill-opacity="1"><g transform="translate(111.56252, 198.743526)"><g><path d="M 5.546875 -3.125 C 2.628906 -5.71875 1.171875 -9.046875 1.171875 -13.109375 C 1.171875 -17.171875 2.691406 -20.503906 5.734375 -23.109375 C 8.773438 -25.722656 12.53125 -27.03125 17 -27.03125 C 21.40625 -27.03125 25.117188 -25.71875 28.140625 -23.09375 C 31.160156 -20.46875 32.671875 -17.140625 32.671875 -13.109375 C 32.671875 -9.078125 31.191406 -5.753906 28.234375 -3.140625 C 25.285156 -0.535156 21.539062 0.765625 17 0.765625 C 12.289062 0.765625 8.472656 -0.53125 5.546875 -3.125 Z M 12.5625 -17.5625 C 11.382812 -16.40625 10.796875 -14.921875 10.796875 -13.109375 C 10.796875 -11.296875 11.359375 -9.816406 12.484375 -8.671875 C 13.617188 -7.535156 15.109375 -6.96875 16.953125 -6.96875 C 18.722656 -6.96875 20.179688 -7.546875 21.328125 -8.703125 C 22.472656 -9.867188 23.046875 -11.335938 23.046875 -13.109375 C 23.046875 -14.921875 22.457031 -16.40625 21.28125 -17.5625 C 20.101562 -18.71875 18.660156 -19.296875 16.953125 -19.296875 C 15.210938 -19.296875 13.75 -18.71875 12.5625 -17.5625 Z M 12.5625 -17.5625 "/></g></g></g><g fill="#000000" fill-opacity="1"><g transform="translate(140.591092, 198.743526)"><g><path d="M 5.546875 -3.125 C 2.628906 -5.71875 1.171875 -9.046875 1.171875 -13.109375 C 1.171875 -17.171875 2.691406 -20.503906 5.734375 -23.109375 C 8.773438 -25.722656 12.53125 -27.03125 17 -27.03125 C 21.40625 -27.03125 25.117188 -25.71875 28.140625 -23.09375 C 31.160156 -20.46875 32.671875 -17.140625 32.671875 -13.109375 C 32.671875 -9.078125 31.191406 -5.753906 28.234375 -3.140625 C 25.285156 -0.535156 21.539062 0.765625 17 0.765625 C 12.289062 0.765625 8.472656 -0.53125 5.546875 -3.125 Z M 12.5625 -17.5625 C 11.382812 -16.40625 10.796875 -14.921875 10.796875 -13.109375 C 10.796875 -11.296875 11.359375 -9.816406 12.484375 -8.671875 C 13.617188 -7.535156 15.109375 -6.96875 16.953125 -6.96875 C 18.722656 -6.96875 20.179688 -7.546875 21.328125 -8.703125 C 22.472656 -9.867188 23.046875 -11.335938 23.046875 -13.109375 C 23.046875 -14.921875 22.457031 -16.40625 21.28125 -17.5625 C 20.101562 -18.71875 18.660156 -19.296875 16.953125 -19.296875 C 15.210938 -19.296875 13.75 -18.71875 12.5625 -17.5625 Z M 12.5625 -17.5625 "/></g></g></g><g fill="#000000" fill-opacity="1"><g transform="translate(169.619664, 198.743526)"><g><path d="M 33.078125 -26.265625 L 20.578125 -13.71875 L 34.3125 0 L 22.625 0 L 12.140625 -10.5 L 12.140625 0 L 3.078125 0 L 3.078125 -44.03125 L 12.140625 -44.03125 L 12.140625 -17.109375 L 21.296875 -26.265625 Z M 33.078125 -26.265625 "/></g></g></g><g fill="#000000" fill-opacity="1"><g transform="translate(197.880246, 198.743526)"><g><path d="M 3.078125 0 L 3.078125 -44.03125 L 12.140625 -44.03125 L 12.140625 -23.5 L 12.234375 -23.5 C 14.585938 -25.851562 17.097656 -27.03125 19.765625 -27.03125 C 21.054688 -27.03125 22.34375 -26.859375 23.625 -26.515625 C 24.90625 -26.179688 26.132812 -25.65625 27.3125 -24.9375 C 28.488281 -24.21875 29.441406 -23.203125 30.171875 -21.890625 C 30.910156 -20.578125 31.28125 -19.050781 31.28125 -17.3125 L 31.28125 0 L 22.21875 0 L 22.21875 -14.84375 C 22.21875 -16.207031 21.78125 -17.398438 20.90625 -18.421875 C 20.039062 -19.453125 18.910156 -19.96875 17.515625 -19.96875 C 16.148438 -19.96875 14.910156 -19.4375 13.796875 -18.375 C 12.691406 -17.320312 12.140625 -16.144531 12.140625 -14.84375 L 12.140625 0 Z M 3.078125 0 "/></g></g></g><g fill="#000000" fill-opacity="1"><g transform="translate(226.908813, 198.743526)"><g><path d="M 5.546875 -3.125 C 2.628906 -5.71875 1.171875 -9.046875 1.171875 -13.109375 C 1.171875 -17.171875 2.691406 -20.503906 5.734375 -23.109375 C 8.773438 -25.722656 12.53125 -27.03125 17 -27.03125 C 21.40625 -27.03125 25.117188 -25.71875 28.140625 -23.09375 C 31.160156 -20.46875 32.671875 -17.140625 32.671875 -13.109375 C 32.671875 -9.078125 31.191406 -5.753906 28.234375 -3.140625 C 25.285156 -0.535156 21.539062 0.765625 17 0.765625 C 12.289062 0.765625 8.472656 -0.53125 5.546875 -3.125 Z M 12.5625 -17.5625 C 11.382812 -16.40625 10.796875 -14.921875 10.796875 -13.109375 C 10.796875 -11.296875 11.359375 -9.816406 12.484375 -8.671875 C 13.617188 -7.535156 15.109375 -6.96875 16.953125 -6.96875 C 18.722656 -6.96875 20.179688 -7.546875 21.328125 -8.703125 C 22.472656 -9.867188 23.046875 -11.335938 23.046875 -13.109375 C 23.046875 -14.921875 22.457031 -16.40625 21.28125 -17.5625 C 20.101562 -18.71875 18.660156 -19.296875 16.953125 -19.296875 C 15.210938 -19.296875 13.75 -18.71875 12.5625 -17.5625 Z M 12.5625 -17.5625 "/></g></g></g><g fill="#000000" fill-opacity="1"><g transform="translate(255.937391, 198.743526)"><g><path d="M 8.90625 -10.953125 C 10.539062 -10.953125 11.929688 -10.378906 13.078125 -9.234375 C 14.222656 -8.097656 14.796875 -6.707031 14.796875 -5.0625 C 14.796875 -3.457031 14.222656 -2.082031 13.078125 -0.9375 C 11.929688 0.195312 10.539062 0.765625 8.90625 0.765625 C 7.300781 0.765625 5.925781 0.195312 4.78125 -0.9375 C 3.644531 -2.082031 3.078125 -3.457031 3.078125 -5.0625 C 3.078125 -6.707031 3.644531 -8.097656 4.78125 -9.234375 C 5.925781 -10.378906 7.300781 -10.953125 8.90625 -10.953125 Z M 8.90625 -10.953125 "/></g></g></g><g fill="#000000" fill-opacity="1"><g transform="translate(174.013294, 325.064657)"><g><path d="M 0.421875 -0.84375 C 0.359375 -0.9375 0.328125 -1.03125 0.328125 -1.125 C 0.328125 -1.257812 0.398438 -1.375 0.546875 -1.46875 C 0.617188 -1.519531 0.695312 -1.546875 0.78125 -1.546875 C 0.90625 -1.546875 1.019531 -1.492188 1.125 -1.390625 C 1.332031 -1.160156 1.550781 -0.984375 1.78125 -0.859375 C 2.019531 -0.742188 2.304688 -0.6875 2.640625 -0.6875 C 2.898438 -0.695312 3.128906 -0.757812 3.328125 -0.875 C 3.523438 -0.988281 3.625 -1.171875 3.625 -1.421875 C 3.625 -1.660156 3.519531 -1.835938 3.3125 -1.953125 C 3.113281 -2.078125 2.820312 -2.191406 2.4375 -2.296875 C 2.050781 -2.398438 1.726562 -2.507812 1.46875 -2.625 C 1.21875 -2.738281 1.003906 -2.898438 0.828125 -3.109375 C 0.648438 -3.328125 0.5625 -3.613281 0.5625 -3.96875 C 0.5625 -4.28125 0.648438 -4.550781 0.828125 -4.78125 C 1.003906 -5.019531 1.238281 -5.203125 1.53125 -5.328125 C 1.820312 -5.460938 2.140625 -5.53125 2.484375 -5.53125 C 2.816406 -5.53125 3.144531 -5.46875 3.46875 -5.34375 C 3.789062 -5.21875 4.054688 -5.03125 4.265625 -4.78125 C 4.347656 -4.675781 4.390625 -4.570312 4.390625 -4.46875 C 4.390625 -4.363281 4.335938 -4.257812 4.234375 -4.15625 C 4.160156 -4.09375 4.070312 -4.0625 3.96875 -4.0625 C 3.84375 -4.0625 3.742188 -4.101562 3.671875 -4.1875 C 3.523438 -4.351562 3.347656 -4.476562 3.140625 -4.5625 C 2.929688 -4.65625 2.695312 -4.703125 2.4375 -4.703125 C 2.175781 -4.703125 1.953125 -4.648438 1.765625 -4.546875 C 1.585938 -4.441406 1.5 -4.257812 1.5 -4 C 1.507812 -3.757812 1.613281 -3.582031 1.8125 -3.46875 C 2.019531 -3.351562 2.332031 -3.238281 2.75 -3.125 C 3.113281 -3.03125 3.414062 -2.925781 3.65625 -2.8125 C 3.894531 -2.707031 4.097656 -2.546875 4.265625 -2.328125 C 4.429688 -2.109375 4.515625 -1.820312 4.515625 -1.46875 C 4.515625 -1.144531 4.421875 -0.863281 4.234375 -0.625 C 4.046875 -0.394531 3.800781 -0.210938 3.5 -0.078125 C 3.207031 0.046875 2.894531 0.109375 2.5625 0.109375 C 2.125 0.109375 1.71875 0.0351562 1.34375 -0.109375 C 0.976562 -0.265625 0.671875 -0.507812 0.421875 -0.84375 Z M 0.421875 -0.84375 "/></g></g></g><g fill="#000000" fill-opacity="1"><g transform="translate(179.545183, 325.064657)"><g><path d="M 1.65625 -0.5 C 1.65625 -0.351562 1.609375 -0.234375 1.515625 -0.140625 C 1.421875 -0.046875 1.304688 0 1.171875 0 C 1.023438 0 0.90625 -0.046875 0.8125 -0.140625 C 0.726562 -0.234375 0.6875 -0.351562 0.6875 -0.5 L 0.6875 -4.953125 C 0.6875 -5.097656 0.726562 -5.21875 0.8125 -5.3125 C 0.90625 -5.40625 1.023438 -5.453125 1.171875 -5.453125 C 1.304688 -5.453125 1.421875 -5.40625 1.515625 -5.3125 C 1.609375 -5.21875 1.65625 -5.097656 1.65625 -4.953125 Z M 1.15625 -6.140625 C 0.957031 -6.140625 0.816406 -6.175781 0.734375 -6.25 C 0.648438 -6.320312 0.609375 -6.4375 0.609375 -6.59375 L 0.609375 -6.75 C 0.609375 -6.914062 0.65625 -7.03125 0.75 -7.09375 C 0.84375 -7.164062 0.984375 -7.203125 1.171875 -7.203125 C 1.359375 -7.203125 1.492188 -7.164062 1.578125 -7.09375 C 1.671875 -7.019531 1.71875 -6.90625 1.71875 -6.75 L 1.71875 -6.59375 C 1.71875 -6.425781 1.671875 -6.304688 1.578125 -6.234375 C 1.492188 -6.171875 1.351562 -6.140625 1.15625 -6.140625 Z M 1.15625 -6.140625 "/></g></g></g><g fill="#000000" fill-opacity="1"><g transform="translate(182.501877, 325.064657)"><g><path d="M 3.484375 -5.53125 C 4.722656 -5.53125 5.34375 -4.785156 5.34375 -3.296875 L 5.34375 -0.5 C 5.34375 -0.351562 5.296875 -0.234375 5.203125 -0.140625 C 5.109375 -0.046875 4.988281 0 4.84375 0 C 4.707031 0 4.59375 -0.046875 4.5 -0.140625 C 4.40625 -0.234375 4.359375 -0.351562 4.359375 -0.5 L 4.359375 -3.296875 C 4.359375 -3.691406 4.265625 -4.007812 4.078125 -4.25 C 3.898438 -4.5 3.597656 -4.625 3.171875 -4.625 C 2.898438 -4.625 2.648438 -4.5625 2.421875 -4.4375 C 2.203125 -4.320312 2.03125 -4.160156 1.90625 -3.953125 C 1.78125 -3.753906 1.71875 -3.535156 1.71875 -3.296875 L 1.71875 -0.5 C 1.71875 -0.351562 1.671875 -0.234375 1.578125 -0.140625 C 1.484375 -0.046875 1.363281 0 1.21875 0 C 1.070312 0 0.953125 -0.046875 0.859375 -0.140625 C 0.773438 -0.234375 0.734375 -0.351562 0.734375 -0.5 L 0.734375 -4.90625 C 0.734375 -5.039062 0.78125 -5.15625 0.875 -5.25 C 0.96875 -5.351562 1.082031 -5.40625 1.21875 -5.40625 C 1.363281 -5.40625 1.484375 -5.351562 1.578125 -5.25 C 1.671875 -5.15625 1.71875 -5.039062 1.71875 -4.90625 L 1.71875 -4.546875 C 1.894531 -4.816406 2.140625 -5.046875 2.453125 -5.234375 C 2.773438 -5.429688 3.117188 -5.53125 3.484375 -5.53125 Z M 3.484375 -5.53125 "/></g></g></g><g fill="#000000" fill-opacity="1"><g transform="translate(189.187445, 325.064657)"><g><path d="M 3.078125 -5.53125 C 3.617188 -5.53125 4.070312 -5.441406 4.4375 -5.265625 C 4.800781 -5.097656 4.984375 -4.878906 4.984375 -4.609375 C 4.984375 -4.492188 4.941406 -4.390625 4.859375 -4.296875 C 4.785156 -4.203125 4.691406 -4.15625 4.578125 -4.15625 C 4.484375 -4.15625 4.410156 -4.164062 4.359375 -4.1875 C 4.316406 -4.21875 4.25 -4.265625 4.15625 -4.328125 C 4.113281 -4.367188 4.046875 -4.414062 3.953125 -4.46875 C 3.878906 -4.507812 3.765625 -4.546875 3.609375 -4.578125 C 3.453125 -4.609375 3.316406 -4.625 3.203125 -4.625 C 2.835938 -4.625 2.515625 -4.539062 2.234375 -4.375 C 1.960938 -4.207031 1.75 -3.976562 1.59375 -3.6875 C 1.445312 -3.394531 1.375 -3.070312 1.375 -2.71875 C 1.375 -2.351562 1.445312 -2.023438 1.59375 -1.734375 C 1.75 -1.441406 1.957031 -1.210938 2.21875 -1.046875 C 2.488281 -0.878906 2.796875 -0.796875 3.140625 -0.796875 C 3.503906 -0.796875 3.796875 -0.851562 4.015625 -0.96875 C 4.054688 -1 4.117188 -1.046875 4.203125 -1.109375 C 4.273438 -1.160156 4.335938 -1.195312 4.390625 -1.21875 C 4.441406 -1.25 4.503906 -1.265625 4.578125 -1.265625 C 4.710938 -1.265625 4.816406 -1.222656 4.890625 -1.140625 C 4.972656 -1.054688 5.015625 -0.941406 5.015625 -0.796875 C 5.015625 -0.660156 4.921875 -0.519531 4.734375 -0.375 C 4.554688 -0.238281 4.316406 -0.125 4.015625 -0.03125 C 3.710938 0.0625 3.382812 0.109375 3.03125 0.109375 C 2.507812 0.109375 2.046875 -0.0078125 1.640625 -0.25 C 1.242188 -0.5 0.9375 -0.835938 0.71875 -1.265625 C 0.507812 -1.703125 0.40625 -2.1875 0.40625 -2.71875 C 0.40625 -3.238281 0.515625 -3.710938 0.734375 -4.140625 C 0.960938 -4.578125 1.28125 -4.914062 1.6875 -5.15625 C 2.09375 -5.40625 2.554688 -5.53125 3.078125 -5.53125 Z M 3.078125 -5.53125 "/></g></g></g><g fill="#000000" fill-opacity="1"><g transform="translate(195.100457, 325.064657)"><g><path d="M 5.46875 -2.90625 C 5.46875 -2.78125 5.414062 -2.675781 5.3125 -2.59375 C 5.21875 -2.507812 5.109375 -2.46875 4.984375 -2.46875 L 1.34375 -2.46875 C 1.394531 -1.96875 1.585938 -1.5625 1.921875 -1.25 C 2.253906 -0.945312 2.660156 -0.796875 3.140625 -0.796875 C 3.472656 -0.796875 3.742188 -0.84375 3.953125 -0.9375 C 4.160156 -1.039062 4.34375 -1.164062 4.5 -1.3125 C 4.601562 -1.375 4.703125 -1.40625 4.796875 -1.40625 C 4.910156 -1.40625 5.003906 -1.363281 5.078125 -1.28125 C 5.160156 -1.207031 5.203125 -1.113281 5.203125 -1 C 5.203125 -0.851562 5.132812 -0.722656 5 -0.609375 C 4.800781 -0.410156 4.535156 -0.238281 4.203125 -0.09375 C 3.878906 0.0390625 3.546875 0.109375 3.203125 0.109375 C 2.640625 0.109375 2.144531 -0.00390625 1.71875 -0.234375 C 1.300781 -0.472656 0.976562 -0.800781 0.75 -1.21875 C 0.519531 -1.644531 0.40625 -2.125 0.40625 -2.65625 C 0.40625 -3.226562 0.519531 -3.734375 0.75 -4.171875 C 0.988281 -4.609375 1.300781 -4.941406 1.6875 -5.171875 C 2.082031 -5.410156 2.503906 -5.53125 2.953125 -5.53125 C 3.390625 -5.53125 3.800781 -5.414062 4.1875 -5.1875 C 4.570312 -4.957031 4.878906 -4.644531 5.109375 -4.25 C 5.347656 -3.851562 5.46875 -3.40625 5.46875 -2.90625 Z M 2.953125 -4.625 C 2.566406 -4.625 2.234375 -4.515625 1.953125 -4.296875 C 1.671875 -4.078125 1.484375 -3.742188 1.390625 -3.296875 L 4.4375 -3.296875 L 4.4375 -3.375 C 4.40625 -3.738281 4.238281 -4.035156 3.9375 -4.265625 C 3.644531 -4.503906 3.316406 -4.625 2.953125 -4.625 Z M 2.953125 -4.625 "/></g></g></g><g fill="#000000" fill-opacity="1"><g transform="translate(175.982044, 334.814656)"><g><path d="M 4.828125 -0.90625 C 4.953125 -0.90625 5.0625 -0.859375 5.15625 -0.765625 C 5.25 -0.679688 5.296875 -0.570312 5.296875 -0.4375 C 5.296875 -0.3125 5.25 -0.207031 5.15625 -0.125 C 5.0625 -0.0390625 4.953125 0 4.828125 0 L 1.171875 0 C 1.023438 0 0.90625 -0.0390625 0.8125 -0.125 C 0.726562 -0.21875 0.6875 -0.332031 0.6875 -0.46875 C 0.6875 -0.59375 0.734375 -0.710938 0.828125 -0.828125 L 3.140625 -3.328125 C 3.773438 -4.003906 4.09375 -4.601562 4.09375 -5.125 C 4.09375 -5.5 3.96875 -5.804688 3.71875 -6.046875 C 3.476562 -6.296875 3.171875 -6.421875 2.796875 -6.421875 C 2.535156 -6.421875 2.289062 -6.347656 2.0625 -6.203125 C 1.832031 -6.054688 1.644531 -5.847656 1.5 -5.578125 C 1.382812 -5.429688 1.253906 -5.359375 1.109375 -5.359375 C 0.984375 -5.359375 0.867188 -5.398438 0.765625 -5.484375 C 0.671875 -5.578125 0.625 -5.6875 0.625 -5.8125 C 0.625 -5.882812 0.648438 -5.960938 0.703125 -6.046875 C 0.753906 -6.128906 0.828125 -6.222656 0.921875 -6.328125 C 1.148438 -6.628906 1.4375 -6.867188 1.78125 -7.046875 C 2.132812 -7.234375 2.488281 -7.328125 2.84375 -7.328125 C 3.300781 -7.328125 3.695312 -7.234375 4.03125 -7.046875 C 4.375 -6.859375 4.632812 -6.601562 4.8125 -6.28125 C 5 -5.957031 5.09375 -5.585938 5.09375 -5.171875 C 5.09375 -4.378906 4.664062 -3.523438 3.8125 -2.609375 L 2.265625 -0.90625 Z M 4.828125 -0.90625 "/></g></g></g><g fill="#000000" fill-opacity="1"><g transform="translate(182.255579, 334.814656)"><g><path d="M 3.125 0.109375 C 2.5625 0.109375 2.078125 -0.046875 1.671875 -0.359375 C 1.273438 -0.679688 0.972656 -1.117188 0.765625 -1.671875 C 0.566406 -2.234375 0.46875 -2.878906 0.46875 -3.609375 C 0.46875 -4.335938 0.566406 -4.976562 0.765625 -5.53125 C 0.972656 -6.09375 1.273438 -6.53125 1.671875 -6.84375 C 2.078125 -7.164062 2.5625 -7.328125 3.125 -7.328125 C 3.6875 -7.328125 4.164062 -7.164062 4.5625 -6.84375 C 4.96875 -6.53125 5.269531 -6.09375 5.46875 -5.53125 C 5.675781 -4.976562 5.78125 -4.335938 5.78125 -3.609375 C 5.78125 -2.878906 5.675781 -2.234375 5.46875 -1.671875 C 5.269531 -1.117188 4.96875 -0.679688 4.5625 -0.359375 C 4.164062 -0.046875 3.6875 0.109375 3.125 0.109375 Z M 3.125 -0.890625 C 3.625 -0.890625 4.015625 -1.125 4.296875 -1.59375 C 4.578125 -2.070312 4.71875 -2.742188 4.71875 -3.609375 C 4.71875 -4.472656 4.578125 -5.140625 4.296875 -5.609375 C 4.015625 -6.085938 3.625 -6.328125 3.125 -6.328125 C 2.625 -6.328125 2.234375 -6.085938 1.953125 -5.609375 C 1.671875 -5.140625 1.53125 -4.472656 1.53125 -3.609375 C 1.53125 -2.742188 1.671875 -2.070312 1.953125 -1.59375 C 2.234375 -1.125 2.625 -0.890625 3.125 -0.890625 Z M 3.125 -0.890625 "/></g></g></g><g fill="#000000" fill-opacity="1"><g transform="translate(189.116264, 334.814656)"><g><path d="M 4.828125 -0.90625 C 4.953125 -0.90625 5.0625 -0.859375 5.15625 -0.765625 C 5.25 -0.679688 5.296875 -0.570312 5.296875 -0.4375 C 5.296875 -0.3125 5.25 -0.207031 5.15625 -0.125 C 5.0625 -0.0390625 4.953125 0 4.828125 0 L 1.171875 0 C 1.023438 0 0.90625 -0.0390625 0.8125 -0.125 C 0.726562 -0.21875 0.6875 -0.332031 0.6875 -0.46875 C 0.6875 -0.59375 0.734375 -0.710938 0.828125 -0.828125 L 3.140625 -3.328125 C 3.773438 -4.003906 4.09375 -4.601562 4.09375 -5.125 C 4.09375 -5.5 3.96875 -5.804688 3.71875 -6.046875 C 3.476562 -6.296875 3.171875 -6.421875 2.796875 -6.421875 C 2.535156 -6.421875 2.289062 -6.347656 2.0625 -6.203125 C 1.832031 -6.054688 1.644531 -5.847656 1.5 -5.578125 C 1.382812 -5.429688 1.253906 -5.359375 1.109375 -5.359375 C 0.984375 -5.359375 0.867188 -5.398438 0.765625 -5.484375 C 0.671875 -5.578125 0.625 -5.6875 0.625 -5.8125 C 0.625 -5.882812 0.648438 -5.960938 0.703125 -6.046875 C 0.753906 -6.128906 0.828125 -6.222656 0.921875 -6.328125 C 1.148438 -6.628906 1.4375 -6.867188 1.78125 -7.046875 C 2.132812 -7.234375 2.488281 -7.328125 2.84375 -7.328125 C 3.300781 -7.328125 3.695312 -7.234375 4.03125 -7.046875 C 4.375 -6.859375 4.632812 -6.601562 4.8125 -6.28125 C 5 -5.957031 5.09375 -5.585938 5.09375 -5.171875 C 5.09375 -4.378906 4.664062 -3.523438 3.8125 -2.609375 L 2.265625 -0.90625 Z M 4.828125 -0.90625 "/></g></g></g><g fill="#000000" fill-opacity="1"><g transform="translate(195.389799, 334.814656)"><g><path d="M 2.296875 -7.21875 C 2.429688 -7.207031 2.539062 -7.15625 2.625 -7.0625 C 2.71875 -6.976562 2.765625 -6.863281 2.765625 -6.71875 L 2.765625 -0.5 C 2.765625 -0.351562 2.710938 -0.234375 2.609375 -0.140625 C 2.503906 -0.046875 2.378906 0 2.234375 0 C 2.078125 0 1.953125 -0.046875 1.859375 -0.140625 C 1.765625 -0.234375 1.71875 -0.351562 1.71875 -0.5 L 1.71875 -5.859375 L 0.796875 -5.3125 C 0.722656 -5.257812 0.640625 -5.234375 0.546875 -5.234375 C 0.410156 -5.234375 0.289062 -5.285156 0.1875 -5.390625 C 0.09375 -5.503906 0.046875 -5.625 0.046875 -5.75 C 0.046875 -5.832031 0.0703125 -5.910156 0.125 -5.984375 C 0.175781 -6.054688 0.238281 -6.117188 0.3125 -6.171875 L 1.9375 -7.140625 C 2.03125 -7.191406 2.148438 -7.21875 2.296875 -7.21875 Z M 2.296875 -7.21875 "/></g></g></g></svg>