<svg xmlns="http://www.w3.org/2000/svg" xmlns:xlink="http://www.w3.org/1999/xlink" width="500" zoomAndPan="magnify" viewBox="0 0 375 374.999991" height="500" preserveAspectRatio="xMidYMid meet" version="1.0"><defs><g/></defs><g fill="#292929" fill-opacity="1"><g transform="translate(78.638527, 203.934059)"><g><path d="M 10.71875 -50.078125 C 10.613281 -50.078125 10.460938 -50.003906 10.265625 -49.859375 C 10.078125 -49.722656 9.882812 -49.457031 9.6875 -49.0625 C 9.5 -48.675781 9.34375 -48.117188 9.21875 -47.390625 C 9.101562 -46.671875 9.046875 -45.710938 9.046875 -44.515625 L 9.046875 -0.65625 L 17.21875 -0.65625 C 19.007812 -0.84375 20.640625 -1.101562 22.109375 -1.4375 C 23.578125 -1.78125 24.925781 -2.179688 26.15625 -2.640625 C 27.394531 -3.097656 28.554688 -3.613281 29.640625 -4.1875 C 30.722656 -4.769531 31.820312 -5.398438 32.9375 -6.078125 L 33.578125 -6.078125 L 33.578125 0.078125 L 27.359375 0.078125 L 25.46875 0 L 2.171875 0 L 2.171875 -0.65625 C 2.265625 -0.65625 2.40625 -0.710938 2.59375 -0.828125 C 2.789062 -0.953125 2.972656 -1.21875 3.140625 -1.625 C 3.316406 -2.039062 3.472656 -2.609375 3.609375 -3.328125 C 3.753906 -4.054688 3.828125 -5.019531 3.828125 -6.21875 L 3.828125 -44.515625 C 3.828125 -45.710938 3.753906 -46.671875 3.609375 -47.390625 C 3.472656 -48.117188 3.316406 -48.675781 3.140625 -49.0625 C 2.972656 -49.457031 2.789062 -49.722656 2.59375 -49.859375 C 2.40625 -50.003906 2.265625 -50.078125 2.171875 -50.078125 L 2.171875 -50.734375 L 10.71875 -50.734375 Z M 10.71875 -50.078125 "/></g></g></g><g fill="#292929" fill-opacity="1"><g transform="translate(113.155448, 203.934059)"><g><path d="M 2.453125 -13.25 C 1.828125 -15.613281 1.679688 -17.953125 2.015625 -20.265625 C 2.359375 -22.578125 3.097656 -24.707031 4.234375 -26.65625 C 5.367188 -28.613281 6.851562 -30.316406 8.6875 -31.765625 C 10.519531 -33.210938 12.617188 -34.253906 14.984375 -34.890625 C 17.347656 -35.515625 19.6875 -35.65625 22 -35.3125 C 24.3125 -34.976562 26.457031 -34.242188 28.4375 -33.109375 C 30.414062 -31.972656 32.128906 -30.488281 33.578125 -28.65625 C 35.023438 -26.820312 36.0625 -24.722656 36.6875 -22.359375 C 37.320312 -19.992188 37.46875 -17.65625 37.125 -15.34375 C 36.789062 -13.03125 36.054688 -10.894531 34.921875 -8.9375 C 33.785156 -6.976562 32.300781 -5.273438 30.46875 -3.828125 C 28.632812 -2.390625 26.535156 -1.351562 24.171875 -0.71875 C 21.804688 -0.09375 19.460938 0.0507812 17.140625 -0.28125 C 14.828125 -0.625 12.679688 -1.363281 10.703125 -2.5 C 8.734375 -3.632812 7.023438 -5.117188 5.578125 -6.953125 C 4.128906 -8.785156 3.085938 -10.882812 2.453125 -13.25 Z M 31.765625 -21.0625 C 31.285156 -22.800781 30.539062 -24.570312 29.53125 -26.375 C 28.519531 -28.1875 27.289062 -29.78125 25.84375 -31.15625 C 24.394531 -32.53125 22.753906 -33.539062 20.921875 -34.1875 C 19.085938 -34.84375 17.15625 -34.90625 15.125 -34.375 C 13.101562 -33.84375 11.472656 -32.84375 10.234375 -31.375 C 9.003906 -29.90625 8.097656 -28.21875 7.515625 -26.3125 C 6.941406 -24.40625 6.65625 -22.398438 6.65625 -20.296875 C 6.65625 -18.203125 6.894531 -16.285156 7.375 -14.546875 C 7.863281 -12.804688 8.613281 -11.019531 9.625 -9.1875 C 10.632812 -7.351562 11.863281 -5.757812 13.3125 -4.40625 C 14.757812 -3.0625 16.398438 -2.050781 18.234375 -1.375 C 20.066406 -0.695312 22 -0.648438 24.03125 -1.234375 C 26.050781 -1.765625 27.6875 -2.765625 28.9375 -4.234375 C 30.195312 -5.703125 31.113281 -7.390625 31.6875 -9.296875 C 32.269531 -11.203125 32.550781 -13.203125 32.53125 -15.296875 C 32.507812 -17.398438 32.253906 -19.320312 31.765625 -21.0625 Z M 31.765625 -21.0625 "/></g></g></g><g fill="#292929" fill-opacity="1"><g transform="translate(151.073451, 203.934059)"><g><path d="M 2.453125 -13.25 C 1.828125 -15.613281 1.679688 -17.953125 2.015625 -20.265625 C 2.359375 -22.578125 3.097656 -24.707031 4.234375 -26.65625 C 5.367188 -28.613281 6.851562 -30.316406 8.6875 -31.765625 C 10.519531 -33.210938 12.617188 -34.253906 14.984375 -34.890625 C 17.347656 -35.515625 19.6875 -35.65625 22 -35.3125 C 24.3125 -34.976562 26.457031 -34.242188 28.4375 -33.109375 C 30.414062 -31.972656 32.128906 -30.488281 33.578125 -28.65625 C 35.023438 -26.820312 36.0625 -24.722656 36.6875 -22.359375 C 37.320312 -19.992188 37.46875 -17.65625 37.125 -15.34375 C 36.789062 -13.03125 36.054688 -10.894531 34.921875 -8.9375 C 33.785156 -6.976562 32.300781 -5.273438 30.46875 -3.828125 C 28.632812 -2.390625 26.535156 -1.351562 24.171875 -0.71875 C 21.804688 -0.09375 19.460938 0.0507812 17.140625 -0.28125 C 14.828125 -0.625 12.679688 -1.363281 10.703125 -2.5 C 8.734375 -3.632812 7.023438 -5.117188 5.578125 -6.953125 C 4.128906 -8.785156 3.085938 -10.882812 2.453125 -13.25 Z M 31.765625 -21.0625 C 31.285156 -22.800781 30.539062 -24.570312 29.53125 -26.375 C 28.519531 -28.1875 27.289062 -29.78125 25.84375 -31.15625 C 24.394531 -32.53125 22.753906 -33.539062 20.921875 -34.1875 C 19.085938 -34.84375 17.15625 -34.90625 15.125 -34.375 C 13.101562 -33.84375 11.472656 -32.84375 10.234375 -31.375 C 9.003906 -29.90625 8.097656 -28.21875 7.515625 -26.3125 C 6.941406 -24.40625 6.65625 -22.398438 6.65625 -20.296875 C 6.65625 -18.203125 6.894531 -16.285156 7.375 -14.546875 C 7.863281 -12.804688 8.613281 -11.019531 9.625 -9.1875 C 10.632812 -7.351562 11.863281 -5.757812 13.3125 -4.40625 C 14.757812 -3.0625 16.398438 -2.050781 18.234375 -1.375 C 20.066406 -0.695312 22 -0.648438 24.03125 -1.234375 C 26.050781 -1.765625 27.6875 -2.765625 28.9375 -4.234375 C 30.195312 -5.703125 31.113281 -7.390625 31.6875 -9.296875 C 32.269531 -11.203125 32.550781 -13.203125 32.53125 -15.296875 C 32.507812 -17.398438 32.253906 -19.320312 31.765625 -21.0625 Z M 31.765625 -21.0625 "/></g></g></g><g fill="#292929" fill-opacity="1"><g transform="translate(188.991458, 203.934059)"><g><path d="M 8.609375 -52.25 L 8.609375 -15.5625 L 16.640625 -22.65625 L 25.90625 -30.828125 C 26.875 -31.703125 27.515625 -32.488281 27.828125 -33.1875 C 28.140625 -33.882812 27.742188 -34.234375 26.640625 -34.234375 L 26.640625 -34.890625 L 33.4375 -34.890625 L 33.4375 -34.234375 C 32.71875 -34.234375 31.929688 -34.039062 31.078125 -33.65625 C 30.234375 -33.269531 29.460938 -32.847656 28.765625 -32.390625 C 28.066406 -31.929688 27.460938 -31.484375 26.953125 -31.046875 C 26.453125 -30.609375 26.15625 -30.34375 26.0625 -30.25 L 19.109375 -24.09375 L 27.359375 -10.125 L 30.109375 -5.5 C 30.972656 -4 31.742188 -2.816406 32.421875 -1.953125 C 33.097656 -1.085938 33.628906 -0.65625 34.015625 -0.65625 L 34.015625 0 L 25.46875 0 L 25.46875 -0.65625 C 25.8125 -0.65625 25.726562 -1.390625 25.21875 -2.859375 C 24.71875 -4.328125 23.789062 -6.222656 22.4375 -8.546875 L 15.265625 -20.703125 L 8.609375 -14.84375 L 8.609375 -6.21875 C 8.609375 -5.019531 8.664062 -4.054688 8.78125 -3.328125 C 8.90625 -2.609375 9.0625 -2.039062 9.25 -1.625 C 9.445312 -1.21875 9.640625 -0.953125 9.828125 -0.828125 C 10.023438 -0.710938 10.175781 -0.65625 10.28125 -0.65625 L 10.28125 0 L 1.953125 0 L 1.953125 -0.65625 C 2.046875 -0.65625 2.1875 -0.710938 2.375 -0.828125 C 2.570312 -0.953125 2.753906 -1.21875 2.921875 -1.625 C 3.097656 -2.039062 3.257812 -2.609375 3.40625 -3.328125 C 3.550781 -4.054688 3.625 -5.019531 3.625 -6.21875 L 3.625 -46.03125 C 3.425781 -47.28125 3.15625 -48.097656 2.8125 -48.484375 C 2.476562 -48.867188 2.238281 -49.0625 2.09375 -49.0625 L 1.8125 -49.71875 Z M 8.609375 -52.25 "/></g></g></g><g fill="#292929" fill-opacity="1"><g transform="translate(223.580733, 203.934059)"><g><path d="M 28.296875 -0.65625 C 28.390625 -0.65625 28.53125 -0.710938 28.71875 -0.828125 C 28.914062 -0.953125 29.097656 -1.207031 29.265625 -1.59375 C 29.441406 -1.976562 29.601562 -2.53125 29.75 -3.25 C 29.894531 -3.976562 29.96875 -4.945312 29.96875 -6.15625 C 29.820312 -8.46875 29.625 -10.925781 29.375 -13.53125 C 29.132812 -16.132812 28.785156 -18.628906 28.328125 -21.015625 C 27.867188 -23.410156 27.242188 -25.597656 26.453125 -27.578125 C 25.660156 -29.554688 24.613281 -31.097656 23.3125 -32.203125 C 22.050781 -33.265625 20.695312 -33.75 19.25 -33.65625 C 17.800781 -33.507812 16.425781 -32.859375 15.125 -31.703125 C 14.59375 -31.210938 14.132812 -30.726562 13.75 -30.25 C 12.882812 -29.09375 12.125 -27.789062 11.46875 -26.34375 C 10.820312 -24.894531 10.28125 -23.410156 9.84375 -21.890625 C 9.40625 -20.367188 9.085938 -18.820312 8.890625 -17.25 C 8.703125 -15.6875 8.609375 -14.179688 8.609375 -12.734375 L 8.609375 -6.21875 C 8.609375 -5.019531 8.664062 -4.054688 8.78125 -3.328125 C 8.90625 -2.609375 9.0625 -2.039062 9.25 -1.625 C 9.445312 -1.21875 9.640625 -0.953125 9.828125 -0.828125 C 10.023438 -0.710938 10.175781 -0.65625 10.28125 -0.65625 L 10.28125 0 L 1.875 0 L 1.875 -0.65625 C 1.976562 -0.65625 2.125 -0.710938 2.3125 -0.828125 C 2.507812 -0.953125 2.691406 -1.21875 2.859375 -1.625 C 3.023438 -2.039062 3.179688 -2.609375 3.328125 -3.328125 C 3.472656 -4.054688 3.546875 -5.019531 3.546875 -6.21875 L 3.546875 -46.03125 C 3.398438 -47.28125 3.15625 -48.097656 2.8125 -48.484375 C 2.476562 -48.867188 2.21875 -49.0625 2.03125 -49.0625 L 1.8125 -49.71875 L 8.609375 -52.25 L 8.609375 -18.96875 C 8.992188 -21.46875 9.597656 -23.695312 10.421875 -25.65625 C 11.242188 -27.613281 12.207031 -29.242188 13.3125 -30.546875 C 14.425781 -32.085938 15.742188 -33.253906 17.265625 -34.046875 C 18.785156 -34.847656 20.507812 -35.128906 22.4375 -34.890625 C 24.945312 -34.503906 26.9375 -33.550781 28.40625 -32.03125 C 29.875 -30.507812 31.019531 -28.660156 31.84375 -26.484375 C 32.375 -25.085938 32.820312 -23.492188 33.1875 -21.703125 C 33.550781 -19.921875 33.851562 -18.050781 34.09375 -16.09375 C 34.332031 -14.144531 34.523438 -12.171875 34.671875 -10.171875 C 34.816406 -8.171875 34.9375 -6.253906 35.03125 -4.421875 C 35.269531 -2.828125 35.546875 -1.800781 35.859375 -1.34375 C 36.171875 -0.882812 36.425781 -0.65625 36.625 -0.65625 L 36.625 0 L 28.296875 0 Z M 28.296875 -0.65625 "/></g></g></g><g fill="#292929" fill-opacity="1"><g transform="translate(260.775087, 203.934059)"><g><path d="M 2.453125 -13.25 C 1.828125 -15.613281 1.679688 -17.953125 2.015625 -20.265625 C 2.359375 -22.578125 3.097656 -24.707031 4.234375 -26.65625 C 5.367188 -28.613281 6.851562 -30.316406 8.6875 -31.765625 C 10.519531 -33.210938 12.617188 -34.253906 14.984375 -34.890625 C 17.347656 -35.515625 19.6875 -35.65625 22 -35.3125 C 24.3125 -34.976562 26.457031 -34.242188 28.4375 -33.109375 C 30.414062 -31.972656 32.128906 -30.488281 33.578125 -28.65625 C 35.023438 -26.820312 36.0625 -24.722656 36.6875 -22.359375 C 37.320312 -19.992188 37.46875 -17.65625 37.125 -15.34375 C 36.789062 -13.03125 36.054688 -10.894531 34.921875 -8.9375 C 33.785156 -6.976562 32.300781 -5.273438 30.46875 -3.828125 C 28.632812 -2.390625 26.535156 -1.351562 24.171875 -0.71875 C 21.804688 -0.09375 19.460938 0.0507812 17.140625 -0.28125 C 14.828125 -0.625 12.679688 -1.363281 10.703125 -2.5 C 8.734375 -3.632812 7.023438 -5.117188 5.578125 -6.953125 C 4.128906 -8.785156 3.085938 -10.882812 2.453125 -13.25 Z M 31.765625 -21.0625 C 31.285156 -22.800781 30.539062 -24.570312 29.53125 -26.375 C 28.519531 -28.1875 27.289062 -29.78125 25.84375 -31.15625 C 24.394531 -32.53125 22.753906 -33.539062 20.921875 -34.1875 C 19.085938 -34.84375 17.15625 -34.90625 15.125 -34.375 C 13.101562 -33.84375 11.472656 -32.84375 10.234375 -31.375 C 9.003906 -29.90625 8.097656 -28.21875 7.515625 -26.3125 C 6.941406 -24.40625 6.65625 -22.398438 6.65625 -20.296875 C 6.65625 -18.203125 6.894531 -16.285156 7.375 -14.546875 C 7.863281 -12.804688 8.613281 -11.019531 9.625 -9.1875 C 10.632812 -7.351562 11.863281 -5.757812 13.3125 -4.40625 C 14.757812 -3.0625 16.398438 -2.050781 18.234375 -1.375 C 20.066406 -0.695312 22 -0.648438 24.03125 -1.234375 C 26.050781 -1.765625 27.6875 -2.765625 28.9375 -4.234375 C 30.195312 -5.703125 31.113281 -7.390625 31.6875 -9.296875 C 32.269531 -11.203125 32.550781 -13.203125 32.53125 -15.296875 C 32.507812 -17.398438 32.253906 -19.320312 31.765625 -21.0625 Z M 31.765625 -21.0625 "/></g></g></g><g fill="#292929" fill-opacity="1"><g transform="translate(177.666341, 300.095728)"><g><path d="M 3.78125 -0.734375 C 3.894531 -0.734375 3.988281 -0.691406 4.0625 -0.609375 C 4.132812 -0.535156 4.171875 -0.453125 4.171875 -0.359375 C 4.171875 -0.253906 4.132812 -0.164062 4.0625 -0.09375 C 3.988281 -0.03125 3.894531 0 3.78125 0 L 1.03125 0 C 0.925781 0 0.835938 -0.0351562 0.765625 -0.109375 C 0.691406 -0.179688 0.65625 -0.269531 0.65625 -0.375 L 0.65625 -5.15625 C 0.65625 -5.257812 0.691406 -5.347656 0.765625 -5.421875 C 0.835938 -5.492188 0.925781 -5.53125 1.03125 -5.53125 L 3.78125 -5.53125 C 3.894531 -5.53125 3.988281 -5.492188 4.0625 -5.421875 C 4.132812 -5.359375 4.171875 -5.269531 4.171875 -5.15625 C 4.171875 -5.050781 4.132812 -4.96875 4.0625 -4.90625 C 3.988281 -4.84375 3.894531 -4.8125 3.78125 -4.8125 L 1.4375 -4.8125 L 1.4375 -3.1875 L 3.4375 -3.1875 C 3.539062 -3.1875 3.628906 -3.148438 3.703125 -3.078125 C 3.773438 -3.015625 3.8125 -2.929688 3.8125 -2.828125 C 3.8125 -2.722656 3.773438 -2.632812 3.703125 -2.5625 C 3.628906 -2.5 3.539062 -2.46875 3.4375 -2.46875 L 1.4375 -2.46875 L 1.4375 -0.734375 Z M 3.78125 -0.734375 "/></g></g></g><g fill="#292929" fill-opacity="1"><g transform="translate(182.171976, 300.095728)"><g><path d="M 2.328125 0.078125 C 1.941406 0.078125 1.601562 0.0234375 1.3125 -0.078125 C 1.019531 -0.191406 0.738281 -0.367188 0.46875 -0.609375 C 0.351562 -0.703125 0.296875 -0.8125 0.296875 -0.9375 C 0.296875 -1.03125 0.332031 -1.113281 0.40625 -1.1875 C 0.476562 -1.257812 0.566406 -1.296875 0.671875 -1.296875 C 0.765625 -1.296875 0.84375 -1.269531 0.90625 -1.21875 C 1.113281 -1.019531 1.328125 -0.875 1.546875 -0.78125 C 1.773438 -0.6875 2.03125 -0.640625 2.3125 -0.640625 C 2.644531 -0.640625 2.925781 -0.71875 3.15625 -0.875 C 3.382812 -1.03125 3.5 -1.222656 3.5 -1.453125 C 3.5 -1.722656 3.382812 -1.929688 3.15625 -2.078125 C 2.9375 -2.234375 2.597656 -2.363281 2.140625 -2.46875 C 1.597656 -2.570312 1.175781 -2.75 0.875 -3 C 0.582031 -3.257812 0.4375 -3.613281 0.4375 -4.0625 C 0.4375 -4.375 0.519531 -4.644531 0.6875 -4.875 C 0.851562 -5.113281 1.078125 -5.296875 1.359375 -5.421875 C 1.648438 -5.546875 1.976562 -5.609375 2.34375 -5.609375 C 2.675781 -5.609375 2.984375 -5.554688 3.265625 -5.453125 C 3.554688 -5.347656 3.796875 -5.207031 3.984375 -5.03125 C 4.097656 -4.925781 4.15625 -4.816406 4.15625 -4.703125 C 4.15625 -4.597656 4.117188 -4.507812 4.046875 -4.4375 C 3.972656 -4.363281 3.890625 -4.328125 3.796875 -4.328125 C 3.722656 -4.328125 3.660156 -4.347656 3.609375 -4.390625 C 3.472656 -4.523438 3.285156 -4.640625 3.046875 -4.734375 C 2.804688 -4.835938 2.570312 -4.890625 2.34375 -4.890625 C 1.988281 -4.890625 1.707031 -4.816406 1.5 -4.671875 C 1.289062 -4.523438 1.1875 -4.332031 1.1875 -4.09375 C 1.1875 -3.832031 1.289062 -3.632812 1.5 -3.5 C 1.707031 -3.363281 2.019531 -3.25 2.4375 -3.15625 C 2.84375 -3.0625 3.175781 -2.953125 3.4375 -2.828125 C 3.695312 -2.710938 3.898438 -2.546875 4.046875 -2.328125 C 4.191406 -2.117188 4.265625 -1.835938 4.265625 -1.484375 C 4.265625 -1.179688 4.175781 -0.910156 4 -0.671875 C 3.832031 -0.429688 3.597656 -0.242188 3.296875 -0.109375 C 3.003906 0.015625 2.679688 0.078125 2.328125 0.078125 Z M 2.328125 0.078125 "/></g></g></g><g fill="#292929" fill-opacity="1"><g transform="translate(186.772473, 300.095728)"><g><path d="M 4.25 -5.53125 C 4.351562 -5.53125 4.441406 -5.5 4.515625 -5.4375 C 4.585938 -5.375 4.625 -5.285156 4.625 -5.171875 C 4.625 -5.054688 4.585938 -4.96875 4.515625 -4.90625 C 4.441406 -4.84375 4.351562 -4.8125 4.25 -4.8125 L 2.84375 -4.8125 L 2.84375 -0.375 C 2.84375 -0.269531 2.800781 -0.179688 2.71875 -0.109375 C 2.644531 -0.0351562 2.550781 0 2.4375 0 C 2.320312 0 2.222656 -0.0351562 2.140625 -0.109375 C 2.066406 -0.179688 2.03125 -0.269531 2.03125 -0.375 L 2.03125 -4.8125 L 0.625 -4.8125 C 0.519531 -4.8125 0.429688 -4.84375 0.359375 -4.90625 C 0.285156 -4.976562 0.25 -5.066406 0.25 -5.171875 C 0.25 -5.285156 0.285156 -5.375 0.359375 -5.4375 C 0.429688 -5.5 0.519531 -5.53125 0.625 -5.53125 Z M 4.25 -5.53125 "/></g></g></g><g fill="#292929" fill-opacity="1"><g transform="translate(191.64963, 300.095728)"><g><path d="M 2.984375 -5.53125 C 3.472656 -5.53125 3.894531 -5.40625 4.25 -5.15625 C 4.601562 -4.914062 4.867188 -4.582031 5.046875 -4.15625 C 5.234375 -3.738281 5.328125 -3.273438 5.328125 -2.765625 C 5.328125 -2.253906 5.234375 -1.785156 5.046875 -1.359375 C 4.867188 -0.941406 4.601562 -0.609375 4.25 -0.359375 C 3.894531 -0.117188 3.472656 0 2.984375 0 L 1.03125 0 C 0.925781 0 0.835938 -0.0351562 0.765625 -0.109375 C 0.691406 -0.179688 0.65625 -0.269531 0.65625 -0.375 L 0.65625 -5.15625 C 0.65625 -5.257812 0.691406 -5.347656 0.765625 -5.421875 C 0.835938 -5.492188 0.925781 -5.53125 1.03125 -5.53125 Z M 2.90625 -0.734375 C 3.4375 -0.734375 3.835938 -0.921875 4.109375 -1.296875 C 4.378906 -1.679688 4.515625 -2.171875 4.515625 -2.765625 C 4.515625 -3.359375 4.378906 -3.847656 4.109375 -4.234375 C 3.835938 -4.617188 3.4375 -4.8125 2.90625 -4.8125 L 1.4375 -4.8125 L 1.4375 -0.734375 Z M 2.90625 -0.734375 "/></g></g></g><g fill="#292929" fill-opacity="1"><g transform="translate(179.364589, 308.000301)"><g><path d="M 3.703125 -0.703125 C 3.796875 -0.703125 3.878906 -0.664062 3.953125 -0.59375 C 4.023438 -0.519531 4.0625 -0.4375 4.0625 -0.34375 C 4.0625 -0.238281 4.023438 -0.15625 3.953125 -0.09375 C 3.878906 -0.03125 3.796875 0 3.703125 0 L 0.890625 0 C 0.785156 0 0.695312 -0.03125 0.625 -0.09375 C 0.5625 -0.164062 0.53125 -0.253906 0.53125 -0.359375 C 0.53125 -0.453125 0.566406 -0.539062 0.640625 -0.625 L 2.40625 -2.546875 C 2.894531 -3.066406 3.140625 -3.523438 3.140625 -3.921875 C 3.140625 -4.210938 3.046875 -4.453125 2.859375 -4.640625 C 2.671875 -4.828125 2.429688 -4.921875 2.140625 -4.921875 C 1.941406 -4.921875 1.753906 -4.863281 1.578125 -4.75 C 1.398438 -4.632812 1.253906 -4.476562 1.140625 -4.28125 C 1.054688 -4.164062 0.957031 -4.109375 0.84375 -4.109375 C 0.757812 -4.109375 0.675781 -4.140625 0.59375 -4.203125 C 0.507812 -4.273438 0.46875 -4.359375 0.46875 -4.453125 C 0.46875 -4.503906 0.488281 -4.5625 0.53125 -4.625 C 0.570312 -4.695312 0.628906 -4.773438 0.703125 -4.859375 C 0.878906 -5.085938 1.097656 -5.269531 1.359375 -5.40625 C 1.628906 -5.539062 1.90625 -5.609375 2.1875 -5.609375 C 2.539062 -5.609375 2.84375 -5.535156 3.09375 -5.390625 C 3.351562 -5.253906 3.550781 -5.0625 3.6875 -4.8125 C 3.832031 -4.5625 3.90625 -4.28125 3.90625 -3.96875 C 3.90625 -3.351562 3.578125 -2.695312 2.921875 -2 L 1.734375 -0.703125 Z M 3.703125 -0.703125 "/></g></g></g><g fill="#292929" fill-opacity="1"><g transform="translate(183.704228, 308.000301)"><g><path d="M 2.390625 0.078125 C 1.960938 0.078125 1.59375 -0.0390625 1.28125 -0.28125 C 0.976562 -0.519531 0.75 -0.851562 0.59375 -1.28125 C 0.4375 -1.707031 0.359375 -2.203125 0.359375 -2.765625 C 0.359375 -3.328125 0.4375 -3.820312 0.59375 -4.25 C 0.75 -4.675781 0.976562 -5.007812 1.28125 -5.25 C 1.59375 -5.488281 1.960938 -5.609375 2.390625 -5.609375 C 2.828125 -5.609375 3.195312 -5.488281 3.5 -5.25 C 3.8125 -5.007812 4.039062 -4.675781 4.1875 -4.25 C 4.34375 -3.820312 4.421875 -3.328125 4.421875 -2.765625 C 4.421875 -2.203125 4.34375 -1.707031 4.1875 -1.28125 C 4.039062 -0.851562 3.8125 -0.519531 3.5 -0.28125 C 3.195312 -0.0390625 2.828125 0.078125 2.390625 0.078125 Z M 2.390625 -0.6875 C 2.773438 -0.6875 3.070312 -0.863281 3.28125 -1.21875 C 3.5 -1.582031 3.609375 -2.097656 3.609375 -2.765625 C 3.609375 -3.429688 3.5 -3.945312 3.28125 -4.3125 C 3.070312 -4.675781 2.773438 -4.859375 2.390625 -4.859375 C 2.003906 -4.859375 1.703125 -4.675781 1.484375 -4.3125 C 1.273438 -3.945312 1.171875 -3.429688 1.171875 -2.765625 C 1.171875 -2.097656 1.273438 -1.582031 1.484375 -1.21875 C 1.703125 -0.863281 2.003906 -0.6875 2.390625 -0.6875 Z M 2.390625 -0.6875 "/></g></g></g><g fill="#292929" fill-opacity="1"><g transform="translate(188.494432, 308.000301)"><g><path d="M 3.703125 -0.703125 C 3.796875 -0.703125 3.878906 -0.664062 3.953125 -0.59375 C 4.023438 -0.519531 4.0625 -0.4375 4.0625 -0.34375 C 4.0625 -0.238281 4.023438 -0.15625 3.953125 -0.09375 C 3.878906 -0.03125 3.796875 0 3.703125 0 L 0.890625 0 C 0.785156 0 0.695312 -0.03125 0.625 -0.09375 C 0.5625 -0.164062 0.53125 -0.253906 0.53125 -0.359375 C 0.53125 -0.453125 0.566406 -0.539062 0.640625 -0.625 L 2.40625 -2.546875 C 2.894531 -3.066406 3.140625 -3.523438 3.140625 -3.921875 C 3.140625 -4.210938 3.046875 -4.453125 2.859375 -4.640625 C 2.671875 -4.828125 2.429688 -4.921875 2.140625 -4.921875 C 1.941406 -4.921875 1.753906 -4.863281 1.578125 -4.75 C 1.398438 -4.632812 1.253906 -4.476562 1.140625 -4.28125 C 1.054688 -4.164062 0.957031 -4.109375 0.84375 -4.109375 C 0.757812 -4.109375 0.675781 -4.140625 0.59375 -4.203125 C 0.507812 -4.273438 0.46875 -4.359375 0.46875 -4.453125 C 0.46875 -4.503906 0.488281 -4.5625 0.53125 -4.625 C 0.570312 -4.695312 0.628906 -4.773438 0.703125 -4.859375 C 0.878906 -5.085938 1.097656 -5.269531 1.359375 -5.40625 C 1.628906 -5.539062 1.90625 -5.609375 2.1875 -5.609375 C 2.539062 -5.609375 2.84375 -5.535156 3.09375 -5.390625 C 3.351562 -5.253906 3.550781 -5.0625 3.6875 -4.8125 C 3.832031 -4.5625 3.90625 -4.28125 3.90625 -3.96875 C 3.90625 -3.351562 3.578125 -2.695312 2.921875 -2 L 1.734375 -0.703125 Z M 3.703125 -0.703125 "/></g></g></g><g fill="#292929" fill-opacity="1"><g transform="translate(192.834071, 308.000301)"><g><path d="M 1.765625 -5.53125 C 1.867188 -5.53125 1.953125 -5.492188 2.015625 -5.421875 C 2.085938 -5.347656 2.125 -5.257812 2.125 -5.15625 L 2.125 -0.375 C 2.125 -0.269531 2.082031 -0.179688 2 -0.109375 C 1.914062 -0.0351562 1.816406 0 1.703125 0 C 1.585938 0 1.492188 -0.0351562 1.421875 -0.109375 C 1.347656 -0.179688 1.3125 -0.269531 1.3125 -0.375 L 1.3125 -4.484375 L 0.609375 -4.078125 C 0.554688 -4.035156 0.492188 -4.015625 0.421875 -4.015625 C 0.316406 -4.015625 0.226562 -4.054688 0.15625 -4.140625 C 0.0820312 -4.222656 0.046875 -4.3125 0.046875 -4.40625 C 0.046875 -4.46875 0.0625 -4.523438 0.09375 -4.578125 C 0.132812 -4.640625 0.179688 -4.691406 0.234375 -4.734375 L 1.484375 -5.484375 C 1.554688 -5.515625 1.648438 -5.53125 1.765625 -5.53125 Z M 1.765625 -5.53125 "/></g></g></g></svg>