<svg xmlns="http://www.w3.org/2000/svg" xmlns:xlink="http://www.w3.org/1999/xlink" width="500" zoomAndPan="magnify" viewBox="0 0 375 374.999991" height="500" preserveAspectRatio="xMidYMid meet" version="1.0"><defs><g/><clipPath id="ff7b909034"><path d="M 167.238281 221.71875 L 207.734375 221.71875 L 207.734375 241.21875 L 167.238281 241.21875 Z M 167.238281 221.71875 " clip-rule="nonzero"/></clipPath><clipPath id="5583ea5edf"><path d="M 176.984375 221.71875 L 198.011719 221.71875 C 203.390625 221.71875 207.753906 226.082031 207.753906 231.460938 C 207.753906 236.84375 203.390625 241.207031 198.011719 241.207031 L 176.984375 241.207031 C 171.601562 241.207031 167.238281 236.84375 167.238281 231.460938 C 167.238281 226.082031 171.601562 221.71875 176.984375 221.71875 Z M 176.984375 221.71875 " clip-rule="nonzero"/></clipPath></defs><g fill="#2b2b2b" fill-opacity="1"><g transform="translate(79.869784, 191.814026)"><g><path d="M 41.4375 -2.703125 C 44.15625 -2.421875 45.921875 -5.875 44.625 -8.125 C 44.25 -8.6875 43.875 -9.140625 43.5 -9.609375 C 43.59375 -10.078125 43.6875 -10.640625 43.6875 -11.109375 C 43.6875 -12.515625 42.65625 -13.53125 41.625 -14.28125 C 40.515625 -15.125 38.921875 -15.3125 37.53125 -15.40625 C 35.75 -15.5 33.890625 -15.40625 32.015625 -15.40625 C 27.4375 -15.3125 22.78125 -14.75 18.390625 -13.625 C 18.390625 -13.8125 18.484375 -13.90625 18.484375 -14.1875 L 18.484375 -14.375 C 18.390625 -14.28125 18.296875 -14.28125 18.296875 -14.28125 L 18.015625 -19.046875 C 17.828125 -23.984375 17.546875 -28.9375 17.171875 -33.890625 C 16.796875 -38.546875 16.421875 -43.3125 15.96875 -48.078125 C 15.5 -52 15.40625 -56.46875 12.875 -59.734375 C 12.78125 -60.015625 12.421875 -59.828125 12.515625 -59.546875 C 13.53125 -57.6875 13.8125 -55.640625 13.90625 -53.578125 C 14 -52 14.1875 -48.53125 14.09375 -46.296875 L 13.625 -49 C 13.15625 -52.359375 12.59375 -55.71875 11.953125 -59.09375 C 11.203125 -59.640625 10.359375 -59.921875 9.515625 -60.109375 C 8.78125 -60.484375 7.84375 -60.859375 6.90625 -60.953125 C 4.015625 -61.421875 1.3125 -59.734375 1.59375 -56.65625 C 2.140625 -47.890625 3.078125 -39.109375 3.921875 -30.25 C 4.390625 -25.859375 4.859375 -21.375 5.40625 -16.984375 C 5.328125 -13.34375 5.328125 -9.703125 5.140625 -6.0625 C 5.140625 -5.140625 5.046875 -4.296875 5.046875 -3.359375 C 4.859375 -0.9375 7.46875 0.84375 9.703125 0.28125 C 20.0625 -2.515625 30.796875 -3.453125 41.4375 -2.703125 Z M 3.546875 -53.484375 C 3.453125 -55.265625 2.515625 -58.15625 4.671875 -59 C 5.140625 -59.1875 5.6875 -59.265625 6.0625 -59.265625 C 5.875 -59 5.6875 -58.625 5.59375 -58.34375 L 5.328125 -55.171875 C 4.578125 -52.734375 5.046875 -49.46875 5.140625 -47.234375 C 5.234375 -42.65625 5.328125 -38.078125 5.40625 -33.515625 L 5.40625 -28.375 C 4.953125 -35 4.578125 -41.625 4.015625 -48.359375 C 3.828125 -50.03125 3.734375 -51.8125 3.546875 -53.484375 Z M 39.859375 1.125 C 41.078125 1.21875 41.078125 -0.84375 39.859375 -0.9375 C 34.53125 -1.03125 29.21875 -0.84375 23.890625 -0.375 C 21.5625 -0.1875 19.234375 0.09375 16.796875 0.375 C 14.375 0.75 11.578125 0.9375 9.421875 1.953125 C 9.328125 2.046875 9.328125 2.140625 9.421875 2.140625 C 11.859375 2.421875 14.5625 1.6875 16.984375 1.5 C 19.515625 1.21875 22.03125 1.03125 24.546875 0.9375 C 29.6875 0.65625 34.71875 0.75 39.859375 1.125 Z M 39.859375 1.125 "/></g></g></g><g fill="#2b2b2b" fill-opacity="1"><g transform="translate(115.244677, 191.814026)"><g><path d="M 35.28125 -40.046875 C 34.8125 -42.84375 34.25 -45.734375 33.421875 -48.53125 C 32.484375 -51.25 31.171875 -53.859375 29.875 -56.375 C 29.40625 -57.21875 28.46875 -57.40625 27.71875 -57.125 C 27.0625 -58.34375 26.140625 -59.921875 24.921875 -60.671875 C 23.796875 -61.328125 22.21875 -61.328125 20.90625 -61.046875 C 19.703125 -61.140625 18.484375 -60.765625 17.265625 -60.296875 C 14.28125 -59.640625 12.046875 -56.75 10.453125 -53.296875 C 10.265625 -53.296875 9.984375 -53.390625 9.703125 -53.296875 C 10.078125 -54.328125 10.453125 -55.359375 10.921875 -56.375 C 11.296875 -57.3125 11.859375 -58.25 12.421875 -59.1875 C 12.515625 -59.359375 12.328125 -59.453125 12.234375 -59.265625 C 10.640625 -57.21875 9.421875 -54.984375 8.5 -52.546875 C 8.40625 -52.453125 8.40625 -52.359375 8.3125 -52.359375 C 2.046875 -41.90625 0.375 -29.59375 2.234375 -17.640625 C 3.171875 -12.140625 5.046875 -6.53125 9.421875 -2.796875 C 11.953125 -0.75 15.40625 0.375 18.484375 -0.1875 C 19.515625 -0.09375 20.53125 -0.09375 21.5625 -0.1875 C 24.171875 -0.5625 26.328125 -1.78125 28.09375 -3.546875 C 29.40625 -4.671875 30.515625 -5.96875 31.546875 -7.375 C 34.625 -11.765625 35.46875 -17.453125 35.9375 -22.59375 C 36.59375 -28.46875 36.21875 -34.25 35.28125 -40.046875 Z M 23.609375 -12.875 C 23.328125 -11.765625 22.875 -10.734375 22.3125 -9.703125 C 21.75 -8.6875 20.90625 -7.84375 19.78125 -7.46875 C 15.78125 -6.25 12.515625 -10.078125 11.015625 -13.15625 C 11.953125 -12.59375 13.15625 -12.328125 14.28125 -12.59375 C 14.65625 -12.6875 15.03125 -12.875 15.3125 -13.0625 C 13.90625 -19.140625 13.15625 -25.484375 13.4375 -31.828125 C 13.625 -33.984375 13.8125 -36.125 14.1875 -38.265625 C 14.28125 -38.359375 14.28125 -38.453125 14.375 -38.640625 C 15.125 -42.46875 16.328125 -46.296875 18.109375 -49.75 C 18.484375 -50.40625 18.859375 -51.15625 19.421875 -51.53125 C 14.09375 -40.328125 13.90625 -26.609375 16.515625 -14.46875 C 16.984375 -15.3125 17.078125 -16.234375 16.890625 -17.265625 C 15.78125 -24.171875 15.6875 -31.359375 16.515625 -38.265625 C 16.984375 -41.8125 17.828125 -45.265625 18.859375 -48.625 C 19.140625 -49.5625 19.515625 -50.78125 20.0625 -51.8125 L 20.53125 -51.8125 C 20.625 -51.8125 20.8125 -51.71875 20.90625 -51.625 C 21.28125 -50.96875 21.5625 -50.21875 21.84375 -49.5625 C 22.5 -47.984375 23.0625 -46.296875 23.609375 -44.625 C 23.890625 -43.3125 24.078125 -41.90625 24.359375 -40.515625 C 25.109375 -35.9375 25.390625 -31.171875 25.765625 -26.515625 C 25.765625 -21.9375 25.203125 -17.265625 23.609375 -12.875 Z M 23.609375 -12.875 "/></g></g></g><g fill="#2b2b2b" fill-opacity="1"><g transform="translate(145.95259, 191.814026)"><g><path d="M 35.28125 -40.046875 C 34.8125 -42.84375 34.25 -45.734375 33.421875 -48.53125 C 32.484375 -51.25 31.171875 -53.859375 29.875 -56.375 C 29.40625 -57.21875 28.46875 -57.40625 27.71875 -57.125 C 27.0625 -58.34375 26.140625 -59.921875 24.921875 -60.671875 C 23.796875 -61.328125 22.21875 -61.328125 20.90625 -61.046875 C 19.703125 -61.140625 18.484375 -60.765625 17.265625 -60.296875 C 14.28125 -59.640625 12.046875 -56.75 10.453125 -53.296875 C 10.265625 -53.296875 9.984375 -53.390625 9.703125 -53.296875 C 10.078125 -54.328125 10.453125 -55.359375 10.921875 -56.375 C 11.296875 -57.3125 11.859375 -58.25 12.421875 -59.1875 C 12.515625 -59.359375 12.328125 -59.453125 12.234375 -59.265625 C 10.640625 -57.21875 9.421875 -54.984375 8.5 -52.546875 C 8.40625 -52.453125 8.40625 -52.359375 8.3125 -52.359375 C 2.046875 -41.90625 0.375 -29.59375 2.234375 -17.640625 C 3.171875 -12.140625 5.046875 -6.53125 9.421875 -2.796875 C 11.953125 -0.75 15.40625 0.375 18.484375 -0.1875 C 19.515625 -0.09375 20.53125 -0.09375 21.5625 -0.1875 C 24.171875 -0.5625 26.328125 -1.78125 28.09375 -3.546875 C 29.40625 -4.671875 30.515625 -5.96875 31.546875 -7.375 C 34.625 -11.765625 35.46875 -17.453125 35.9375 -22.59375 C 36.59375 -28.46875 36.21875 -34.25 35.28125 -40.046875 Z M 23.609375 -12.875 C 23.328125 -11.765625 22.875 -10.734375 22.3125 -9.703125 C 21.75 -8.6875 20.90625 -7.84375 19.78125 -7.46875 C 15.78125 -6.25 12.515625 -10.078125 11.015625 -13.15625 C 11.953125 -12.59375 13.15625 -12.328125 14.28125 -12.59375 C 14.65625 -12.6875 15.03125 -12.875 15.3125 -13.0625 C 13.90625 -19.140625 13.15625 -25.484375 13.4375 -31.828125 C 13.625 -33.984375 13.8125 -36.125 14.1875 -38.265625 C 14.28125 -38.359375 14.28125 -38.453125 14.375 -38.640625 C 15.125 -42.46875 16.328125 -46.296875 18.109375 -49.75 C 18.484375 -50.40625 18.859375 -51.15625 19.421875 -51.53125 C 14.09375 -40.328125 13.90625 -26.609375 16.515625 -14.46875 C 16.984375 -15.3125 17.078125 -16.234375 16.890625 -17.265625 C 15.78125 -24.171875 15.6875 -31.359375 16.515625 -38.265625 C 16.984375 -41.8125 17.828125 -45.265625 18.859375 -48.625 C 19.140625 -49.5625 19.515625 -50.78125 20.0625 -51.8125 L 20.53125 -51.8125 C 20.625 -51.8125 20.8125 -51.71875 20.90625 -51.625 C 21.28125 -50.96875 21.5625 -50.21875 21.84375 -49.5625 C 22.5 -47.984375 23.0625 -46.296875 23.609375 -44.625 C 23.890625 -43.3125 24.078125 -41.90625 24.359375 -40.515625 C 25.109375 -35.9375 25.390625 -31.171875 25.765625 -26.515625 C 25.765625 -21.9375 25.203125 -17.265625 23.609375 -12.875 Z M 23.609375 -12.875 "/></g></g></g><g fill="#2b2b2b" fill-opacity="1"><g transform="translate(176.660496, 191.814026)"><g><path d="M 47.609375 -3.640625 C 49.84375 -4.296875 49.5625 -7.09375 49.1875 -8.96875 C 48.265625 -12.59375 47.046875 -16.15625 45.453125 -19.609375 C 42.375 -26.703125 37.796875 -33.046875 32.109375 -38.359375 C 31.546875 -38.921875 30.609375 -38.265625 30.703125 -37.625 C 30.25 -37.984375 29.875 -38.359375 29.40625 -38.734375 L 31.828125 -40.046875 C 37.796875 -43.40625 43.96875 -47.140625 47.234375 -53.296875 C 47.796875 -54.421875 46.484375 -55.453125 45.546875 -54.703125 L 45.265625 -54.421875 C 45.265625 -55.90625 44.53125 -57.3125 43.03125 -57.6875 C 41.171875 -58.25 39.109375 -56.5625 37.625 -55.71875 C 30.34375 -51.53125 21.1875 -47.046875 13.4375 -43.6875 C 13.25 -47.140625 13.15625 -50.5 13.0625 -53.953125 L 13.0625 -54.609375 C 13.0625 -54.609375 12.96875 -54.703125 12.96875 -54.609375 C 12.328125 -50.6875 11.859375 -46.765625 11.484375 -42.75 C 11.203125 -42.65625 11.015625 -42.46875 10.734375 -42.1875 L 11.015625 -50.59375 C 11.109375 -52.734375 11.015625 -54.984375 11.578125 -56.84375 C 13.34375 -61.890625 5.6875 -64.96875 3.171875 -60.390625 C 2.984375 -60.015625 2.796875 -59.734375 2.703125 -59.359375 C 0.75 -58.90625 0.5625 -56.65625 0.65625 -54.984375 C 0.65625 -53.296875 0.75 -51.625 0.75 -49.9375 C 1.03125 -43.5 1.3125 -37.15625 1.78125 -30.796875 C 2.234375 -24.453125 2.984375 -18.109375 3.734375 -11.765625 C 4.015625 -8.96875 4.015625 -6.15625 5.140625 -3.546875 C 6.0625 -1.5 8.3125 -0.1875 10.453125 -0.46875 C 13.0625 0.46875 15.875 -0.09375 18.109375 -1.953125 C 18.765625 -2.515625 18.859375 -3.453125 18.671875 -4.203125 C 18.296875 -6.34375 17.453125 -8.40625 16.984375 -10.171875 C 16.609375 -12.234375 16.15625 -14.28125 15.875 -16.328125 C 15.21875 -21.5625 14.65625 -26.796875 14.1875 -31.921875 C 14.84375 -32.203125 15.59375 -32.484375 16.421875 -32.859375 L 17.921875 -33.421875 C 20.625 -31.453125 22.875 -28.9375 25.109375 -26.421875 C 30.25 -20.8125 35.1875 -14.46875 38.640625 -7.46875 C 38.640625 -6.53125 38.828125 -5.6875 39.296875 -4.859375 C 40.046875 -3.265625 41.71875 -2.234375 43.5 -2.234375 C 46.390625 -2.234375 48.171875 -4.671875 47.890625 -7.1875 C 47.421875 -12.59375 38.171875 -29.03125 34.625 -33.421875 C 40.046875 -27.4375 44.15625 -20.8125 46.953125 -13.25 C 47.609375 -11.390625 50.5 -5.234375 47.515625 -4.015625 C 47.328125 -3.921875 47.421875 -3.546875 47.609375 -3.640625 Z M 47.609375 -3.640625 "/></g></g></g><g fill="#2b2b2b" fill-opacity="1"><g transform="translate(214.835581, 191.814026)"><g><path d="M 47.703125 -29.3125 C 50.03125 -31.828125 49.65625 -36.6875 46.015625 -37.890625 C 45.171875 -38.078125 44.4375 -38.359375 43.6875 -38.453125 L 43.6875 -40.515625 C 43.78125 -42.75 43.78125 -44.984375 43.6875 -47.140625 C 43.6875 -47.421875 43.78125 -47.703125 43.6875 -47.984375 C 43.5 -51.25 43.875 -55.359375 42.09375 -58.25 C 40.234375 -61.421875 36.3125 -61.515625 33.515625 -59.640625 C 30.34375 -57.5 30.890625 -53.765625 31.453125 -50.5 C 31.640625 -46.671875 31.921875 -42.75 32.109375 -38.921875 C 31.078125 -38.828125 30.15625 -38.640625 29.125 -38.546875 C 25.859375 -38.265625 22.59375 -37.984375 19.328125 -37.53125 L 19.140625 -37.53125 C 18.859375 -41.71875 18.578125 -46.015625 18.296875 -50.3125 L 18.015625 -54.796875 C 17.921875 -55.640625 17.546875 -57.40625 16.609375 -57.78125 C 16.234375 -57.96875 15.96875 -58.0625 15.59375 -58.0625 L 15.59375 -58.25 C 15.5 -60.390625 13.15625 -61.890625 11.203125 -61.609375 C 9.140625 -61.328125 7.5625 -59.359375 7.84375 -57.21875 C 8.78125 -50.125 8.96875 -42.84375 9.046875 -35.65625 L 8.875 -35.65625 C 8.78125 -35.65625 8.6875 -35.46875 8.59375 -35.375 C 8.3125 -38.828125 7.9375 -42.46875 7.5625 -45.921875 C 7.09375 -50.5 6.8125 -55.171875 5.875 -59.640625 C 5.875 -59.828125 5.59375 -59.828125 5.59375 -59.640625 C 5.40625 -55.265625 5.78125 -50.78125 5.875 -46.390625 C 6.0625 -42.5625 6.15625 -38.734375 6.25 -35 C 4.859375 -34.53125 3.640625 -33.796875 2.890625 -32.578125 C 2.328125 -32.109375 1.78125 -31.546875 1.40625 -30.984375 C -0.84375 -27.90625 2.421875 -24.078125 5.59375 -25.390625 L 6.53125 -25.765625 C 6.8125 -18.859375 6.90625 -11.859375 7.46875 -4.953125 C 7.46875 -4.296875 8.125 -3.921875 8.6875 -3.921875 C 8.875 -3.453125 9.046875 -2.984375 9.328125 -2.515625 C 11.109375 0.75 14.5625 0.375 16.890625 -2.046875 C 18.015625 -3.265625 18.296875 -5.40625 18.484375 -7 C 18.578125 -7.75 18.578125 -8.59375 18.671875 -9.328125 L 18.671875 -9.609375 C 19.234375 -12.59375 19.140625 -15.78125 19.140625 -18.859375 C 19.140625 -21.5625 19.046875 -24.265625 18.953125 -26.96875 C 22.5 -27.15625 26.140625 -27.25 29.6875 -27.25 C 30.34375 -27.25 30.890625 -27.25 31.546875 -27.25 L 31.546875 -23.796875 C 31.546875 -20.25 31.640625 -16.609375 31.828125 -13.0625 C 31.921875 -9.421875 32.109375 -5.875 32.390625 -2.234375 C 32.484375 -1.03125 32.671875 0.5625 33.515625 1.5 C 34.53125 2.796875 36.21875 3.359375 37.890625 2.328125 C 38.359375 2.046875 38.828125 1.6875 39.109375 1.3125 C 39.203125 1.3125 39.203125 1.3125 39.203125 1.21875 C 41.171875 0.09375 41.53125 -3.078125 41.8125 -5.140625 C 42.09375 -7.375 42.28125 -9.609375 42.46875 -11.953125 C 42.75 -16.515625 43.03125 -21.1875 43.21875 -25.765625 C 45.265625 -25.484375 47.421875 -26.796875 47.703125 -29.03125 Z M 22.3125 -29.78125 C 25.390625 -29.96875 28.46875 -29.875 31.546875 -29.78125 L 31.546875 -29.3125 C 30.984375 -29.3125 30.34375 -29.3125 29.6875 -29.40625 C 26.140625 -29.40625 22.5 -29.21875 18.859375 -28.84375 L 18.859375 -29.21875 C 19.046875 -29.3125 19.140625 -29.5 19.234375 -29.6875 C 20.25 -29.6875 21.28125 -29.78125 22.3125 -29.78125 Z M 22.3125 -29.78125 "/></g></g></g><g fill="#2b2b2b" fill-opacity="1"><g transform="translate(255.904212, 191.814026)"><g><path d="M 35.28125 -40.046875 C 34.8125 -42.84375 34.25 -45.734375 33.421875 -48.53125 C 32.484375 -51.25 31.171875 -53.859375 29.875 -56.375 C 29.40625 -57.21875 28.46875 -57.40625 27.71875 -57.125 C 27.0625 -58.34375 26.140625 -59.921875 24.921875 -60.671875 C 23.796875 -61.328125 22.21875 -61.328125 20.90625 -61.046875 C 19.703125 -61.140625 18.484375 -60.765625 17.265625 -60.296875 C 14.28125 -59.640625 12.046875 -56.75 10.453125 -53.296875 C 10.265625 -53.296875 9.984375 -53.390625 9.703125 -53.296875 C 10.078125 -54.328125 10.453125 -55.359375 10.921875 -56.375 C 11.296875 -57.3125 11.859375 -58.25 12.421875 -59.1875 C 12.515625 -59.359375 12.328125 -59.453125 12.234375 -59.265625 C 10.640625 -57.21875 9.421875 -54.984375 8.5 -52.546875 C 8.40625 -52.453125 8.40625 -52.359375 8.3125 -52.359375 C 2.046875 -41.90625 0.375 -29.59375 2.234375 -17.640625 C 3.171875 -12.140625 5.046875 -6.53125 9.421875 -2.796875 C 11.953125 -0.75 15.40625 0.375 18.484375 -0.1875 C 19.515625 -0.09375 20.53125 -0.09375 21.5625 -0.1875 C 24.171875 -0.5625 26.328125 -1.78125 28.09375 -3.546875 C 29.40625 -4.671875 30.515625 -5.96875 31.546875 -7.375 C 34.625 -11.765625 35.46875 -17.453125 35.9375 -22.59375 C 36.59375 -28.46875 36.21875 -34.25 35.28125 -40.046875 Z M 23.609375 -12.875 C 23.328125 -11.765625 22.875 -10.734375 22.3125 -9.703125 C 21.75 -8.6875 20.90625 -7.84375 19.78125 -7.46875 C 15.78125 -6.25 12.515625 -10.078125 11.015625 -13.15625 C 11.953125 -12.59375 13.15625 -12.328125 14.28125 -12.59375 C 14.65625 -12.6875 15.03125 -12.875 15.3125 -13.0625 C 13.90625 -19.140625 13.15625 -25.484375 13.4375 -31.828125 C 13.625 -33.984375 13.8125 -36.125 14.1875 -38.265625 C 14.28125 -38.359375 14.28125 -38.453125 14.375 -38.640625 C 15.125 -42.46875 16.328125 -46.296875 18.109375 -49.75 C 18.484375 -50.40625 18.859375 -51.15625 19.421875 -51.53125 C 14.09375 -40.328125 13.90625 -26.609375 16.515625 -14.46875 C 16.984375 -15.3125 17.078125 -16.234375 16.890625 -17.265625 C 15.78125 -24.171875 15.6875 -31.359375 16.515625 -38.265625 C 16.984375 -41.8125 17.828125 -45.265625 18.859375 -48.625 C 19.140625 -49.5625 19.515625 -50.78125 20.0625 -51.8125 L 20.53125 -51.8125 C 20.625 -51.8125 20.8125 -51.71875 20.90625 -51.625 C 21.28125 -50.96875 21.5625 -50.21875 21.84375 -49.5625 C 22.5 -47.984375 23.0625 -46.296875 23.609375 -44.625 C 23.890625 -43.3125 24.078125 -41.90625 24.359375 -40.515625 C 25.109375 -35.9375 25.390625 -31.171875 25.765625 -26.515625 C 25.765625 -21.9375 25.203125 -17.265625 23.609375 -12.875 Z M 23.609375 -12.875 "/></g></g></g><g fill="#2b2b2b" fill-opacity="1"><g transform="translate(159.071635, 212.933558)"><g><path d="M 0.484375 0 L 3.046875 0 L 3.046875 -2.140625 L 6.109375 -2.140625 C 8.078125 -2.140625 9.171875 -2.984375 9.171875 -4.515625 C 9.171875 -6.078125 8.09375 -6.953125 6.125 -6.953125 L 0.484375 -6.953125 Z M 3.046875 -3.578125 L 3.046875 -5.515625 L 5.265625 -5.515625 C 6.125 -5.515625 6.609375 -5.171875 6.609375 -4.546875 C 6.609375 -3.921875 6.125 -3.578125 5.265625 -3.578125 Z M 3.046875 -3.578125 "/></g></g></g><g fill="#2b2b2b" fill-opacity="1"><g transform="translate(168.296461, 212.933558)"><g><path d="M 2.78125 0 L 5.34375 0 L 5.34375 -5.15625 L 8.046875 -5.15625 L 8.046875 -6.953125 L 0.09375 -6.953125 L 0.09375 -5.15625 L 2.78125 -5.15625 Z M 2.78125 0 "/></g></g></g><g fill="#2b2b2b" fill-opacity="1"><g transform="translate(176.289359, 212.933558)"><g><path d="M 3.359375 0 L 5.921875 0 L 5.921875 -2.375 L 9.25 -6.953125 L 6.53125 -6.953125 L 4.65625 -4.03125 L 4.640625 -4.03125 L 2.671875 -6.953125 L 0 -6.953125 L 3.359375 -2.375 Z M 3.359375 0 "/></g></g></g><g fill="#2b2b2b" fill-opacity="1"><g transform="translate(185.397783, 212.933558)"><g><path d="M 0.4375 2.328125 L 5.3125 -6.875 L 4.96875 -7.046875 L 0.09375 2.140625 Z M 0.4375 2.328125 "/></g></g></g><g fill="#2b2b2b" fill-opacity="1"><g transform="translate(190.664926, 212.933558)"><g><path d="M 0.484375 0 L 7.28125 0 L 7.28125 -1.875 L 3.046875 -1.875 L 3.046875 -6.953125 L 0.484375 -6.953125 Z M 0.484375 0 "/></g></g></g><g fill="#2b2b2b" fill-opacity="1"><g transform="translate(197.978812, 212.933558)"><g><path d="M 2.78125 0 L 5.34375 0 L 5.34375 -5.15625 L 8.046875 -5.15625 L 8.046875 -6.953125 L 0.09375 -6.953125 L 0.09375 -5.15625 L 2.78125 -5.15625 Z M 2.78125 0 "/></g></g></g><g fill="#2b2b2b" fill-opacity="1"><g transform="translate(205.971709, 212.933558)"><g><path d="M 0.484375 0 L 5.4375 0 C 8.140625 0 9.640625 -1.234375 9.640625 -3.46875 C 9.640625 -5.703125 8.140625 -6.953125 5.4375 -6.953125 L 0.484375 -6.953125 Z M 2.96875 -1.734375 L 2.96875 -5.234375 L 5.0625 -5.234375 C 6.40625 -5.234375 7.15625 -4.59375 7.15625 -3.46875 C 7.15625 -2.359375 6.40625 -1.734375 5.0625 -1.734375 Z M 2.96875 -1.734375 "/></g></g></g><g clip-path="url(#ff7b909034)"><g clip-path="url(#5583ea5edf)"><path stroke-linecap="butt" transform="matrix(0.75, 0, 0, 0.75, 167.238774, 221.717916)" fill="none" stroke-linejoin="miter" d="M 12.994136 0.00111221 L 41.030596 0.00111221 C 48.202472 0.00111221 54.020181 5.818821 54.020181 12.990696 C 54.020181 20.16778 48.202472 25.985489 41.030596 25.985489 L 12.994136 25.985489 C 5.817052 25.985489 -0.000656357 20.16778 -0.000656357 12.990696 C -0.000656357 5.818821 5.817052 0.00111221 12.994136 0.00111221 Z M 12.994136 0.00111221 " stroke="#2b2b2b" stroke-width="3" stroke-opacity="1" stroke-miterlimit="4"/></g></g><g fill="#2b2b2b" fill-opacity="1"><g transform="translate(179.443836, 232.967915)"><g><path d="M 0.390625 0 L 0.390625 -0.765625 C 0.390625 -1.015625 0.4375 -1.234375 0.53125 -1.421875 C 0.632812 -1.617188 0.765625 -1.785156 0.921875 -1.921875 C 1.078125 -2.054688 1.25 -2.175781 1.4375 -2.28125 C 1.625 -2.382812 1.8125 -2.484375 2 -2.578125 C 2.1875 -2.671875 2.359375 -2.765625 2.515625 -2.859375 C 2.679688 -2.953125 2.8125 -3.054688 2.90625 -3.171875 C 3 -3.296875 3.046875 -3.4375 3.046875 -3.59375 C 3.046875 -3.800781 2.972656 -3.96875 2.828125 -4.09375 C 2.691406 -4.21875 2.5 -4.28125 2.25 -4.28125 C 2 -4.28125 1.785156 -4.207031 1.609375 -4.0625 C 1.429688 -3.914062 1.320312 -3.695312 1.28125 -3.40625 L 0.296875 -3.40625 C 0.304688 -3.71875 0.382812 -4.003906 0.53125 -4.265625 C 0.675781 -4.535156 0.894531 -4.742188 1.1875 -4.890625 C 1.476562 -5.046875 1.84375 -5.125 2.28125 -5.125 C 2.65625 -5.125 2.976562 -5.0625 3.25 -4.9375 C 3.53125 -4.8125 3.742188 -4.632812 3.890625 -4.40625 C 4.046875 -4.175781 4.125 -3.90625 4.125 -3.59375 C 4.125 -3.34375 4.078125 -3.125 3.984375 -2.9375 C 3.890625 -2.757812 3.765625 -2.601562 3.609375 -2.46875 C 3.453125 -2.34375 3.28125 -2.226562 3.09375 -2.125 C 2.914062 -2.03125 2.734375 -1.941406 2.546875 -1.859375 C 2.367188 -1.773438 2.203125 -1.6875 2.046875 -1.59375 C 1.890625 -1.507812 1.765625 -1.410156 1.671875 -1.296875 C 1.578125 -1.191406 1.53125 -1.0625 1.53125 -0.90625 L 1.53125 -0.859375 L 4.109375 -0.859375 L 4.109375 0 Z M 0.390625 0 "/></g></g></g><g fill="#2b2b2b" fill-opacity="1"><g transform="translate(183.788237, 232.967915)"><g><path d="M 2.265625 -5.125 C 2.859375 -5.125 3.328125 -4.898438 3.671875 -4.453125 C 4.023438 -4.003906 4.203125 -3.359375 4.203125 -2.515625 C 4.203125 -1.679688 4.03125 -1.039062 3.6875 -0.59375 C 3.34375 -0.144531 2.867188 0.078125 2.265625 0.078125 C 1.648438 0.078125 1.171875 -0.144531 0.828125 -0.59375 C 0.484375 -1.039062 0.3125 -1.679688 0.3125 -2.515625 C 0.3125 -3.078125 0.390625 -3.550781 0.546875 -3.9375 C 0.703125 -4.332031 0.925781 -4.628906 1.21875 -4.828125 C 1.507812 -5.023438 1.859375 -5.125 2.265625 -5.125 Z M 2.265625 -0.765625 C 2.566406 -0.765625 2.785156 -0.894531 2.921875 -1.15625 C 3.054688 -1.425781 3.125 -1.878906 3.125 -2.515625 C 3.125 -3.160156 3.050781 -3.625 2.90625 -3.90625 C 2.769531 -4.1875 2.550781 -4.328125 2.25 -4.328125 C 1.957031 -4.328125 1.738281 -4.1875 1.59375 -3.90625 C 1.445312 -3.625 1.375 -3.160156 1.375 -2.515625 C 1.375 -1.890625 1.445312 -1.441406 1.59375 -1.171875 C 1.738281 -0.898438 1.960938 -0.765625 2.265625 -0.765625 Z M 2.265625 -0.765625 "/></g></g></g><g fill="#2b2b2b" fill-opacity="1"><g transform="translate(188.199105, 232.967915)"><g><path d="M 0.390625 0 L 0.390625 -0.765625 C 0.390625 -1.015625 0.4375 -1.234375 0.53125 -1.421875 C 0.632812 -1.617188 0.765625 -1.785156 0.921875 -1.921875 C 1.078125 -2.054688 1.25 -2.175781 1.4375 -2.28125 C 1.625 -2.382812 1.8125 -2.484375 2 -2.578125 C 2.1875 -2.671875 2.359375 -2.765625 2.515625 -2.859375 C 2.679688 -2.953125 2.8125 -3.054688 2.90625 -3.171875 C 3 -3.296875 3.046875 -3.4375 3.046875 -3.59375 C 3.046875 -3.800781 2.972656 -3.96875 2.828125 -4.09375 C 2.691406 -4.21875 2.5 -4.28125 2.25 -4.28125 C 2 -4.28125 1.785156 -4.207031 1.609375 -4.0625 C 1.429688 -3.914062 1.320312 -3.695312 1.28125 -3.40625 L 0.296875 -3.40625 C 0.304688 -3.71875 0.382812 -4.003906 0.53125 -4.265625 C 0.675781 -4.535156 0.894531 -4.742188 1.1875 -4.890625 C 1.476562 -5.046875 1.84375 -5.125 2.28125 -5.125 C 2.65625 -5.125 2.976562 -5.0625 3.25 -4.9375 C 3.53125 -4.8125 3.742188 -4.632812 3.890625 -4.40625 C 4.046875 -4.175781 4.125 -3.90625 4.125 -3.59375 C 4.125 -3.34375 4.078125 -3.125 3.984375 -2.9375 C 3.890625 -2.757812 3.765625 -2.601562 3.609375 -2.46875 C 3.453125 -2.34375 3.28125 -2.226562 3.09375 -2.125 C 2.914062 -2.03125 2.734375 -1.941406 2.546875 -1.859375 C 2.367188 -1.773438 2.203125 -1.6875 2.046875 -1.59375 C 1.890625 -1.507812 1.765625 -1.410156 1.671875 -1.296875 C 1.578125 -1.191406 1.53125 -1.0625 1.53125 -0.90625 L 1.53125 -0.859375 L 4.109375 -0.859375 L 4.109375 0 Z M 0.390625 0 "/></g></g></g><g fill="#2b2b2b" fill-opacity="1"><g transform="translate(192.543506, 232.967915)"><g><path d="M 1.203125 0 L 1.203125 -3.796875 L 0.296875 -3.796875 L 0.296875 -4.375 C 0.585938 -4.375 0.820312 -4.398438 1 -4.453125 C 1.175781 -4.503906 1.304688 -4.582031 1.390625 -4.6875 C 1.484375 -4.789062 1.539062 -4.914062 1.5625 -5.0625 L 2.234375 -5.0625 L 2.234375 0 Z M 1.203125 0 "/></g></g></g></svg>